<?xml version="1.0" encoding="utf-8"?>
<!-- Generator: Adobe Illustrator 26.0.1, SVG Export Plug-In . SVG Version: 6.00 Build 0)  -->
<svg version="1.1" xmlns="http://www.w3.org/2000/svg" xmlns:xlink="http://www.w3.org/1999/xlink" x="0px" y="0px"
	 viewBox="0 0 500 500" style="enable-background:new 0 0 500 500;" xml:space="preserve">
<style type="text/css">
	.st0{fill:#B9C4E1;}
	.st1{fill:#FFFFFF;}
</style>
<g id="BACKGROUND">
</g>
<g id="OBJECTS">
	<g>
		<ellipse transform="matrix(0.7071 -0.7071 0.7071 0.7071 -103.5532 250)" class="st0" cx="250" cy="250" rx="250" ry="250"/>
		<ellipse class="st1" cx="250" cy="209.05" rx="97.25" ry="125.72"/>
		<path class="st1" d="M250,344.11c-81.35,0-152.95,24.86-194.77,62.55C101.05,463.56,171.25,500,250,500
			c78.75,0,148.95-36.44,194.77-93.34C402.95,368.97,331.35,344.11,250,344.11z"/>
		<path class="st1" d="M288.39,408.76h-76.77c-5.29,0-9.62-4.33-9.62-9.62V259.62c0-5.29,4.33-9.62,9.62-9.62h76.77
			c5.29,0,9.62,4.33,9.62,9.62v139.51C298.01,404.43,293.68,408.76,288.39,408.76z"/>
		<path class="st1" d="M166.18,214.88c5.66,16.3,3.41,31.9-5.02,34.82c-8.43,2.93-19.86-7.91-25.52-24.22
			c-5.66-16.3-3.41-31.89,5.02-34.82S160.52,198.58,166.18,214.88z"/>
		
			<ellipse transform="matrix(0.328 -0.9447 0.9447 0.328 26.5749 477.7328)" class="st1" cx="349.09" cy="220.19" rx="31.25" ry="16.16"/>
		<path class="st1" d="M164.89,214.36c-12.64-22.99-25.64-47.38-24.99-73.6c0.65-26.22,20.61-53.9,46.83-52.95
			c4.57,0.17,9.16,1.17,13.69,0.53c9.07-1.29,15.78-8.7,23.14-14.16c16.59-12.3,39.68-15.22,58.81-7.43
			c11.82,4.81,21.83,13.24,33.35,18.71c21.48,10.21,47.95,9.14,68.53-2.77c-4.29,8.08-11.56,14.53-20.09,17.84
			c7.86,2.51,16.58,2.27,24.29-0.67c-4.65,8.42-12.34,15.12-21.32,18.57c6.66,0.46,13.31,0.92,19.97,1.38
			c-5.68,8.04-13.79,14.34-22.99,17.85c5.22,0.17,10.43,0.34,15.65,0.51c-3.89,11.51-13.96,20.72-25.77,23.56
			c3.36,0.05,6.73,0.09,10.09,0.14c-11.02,15.9-22.04,31.8-33.06,47.7c-3.15,4.54-6.42,9.21-11.07,12.19
			c-3.87,2.48-8.42,3.62-12.9,4.62c-32.64,7.32-66.43,9.52-99.74,6.49c-11.4-1.03-23.31-2.91-32.37-9.91
			c-9.06-7-13.91-20.67-7.67-30.27"/>
		<path class="st1" d="M187.31,367.86c0.72-13.19,2.36-26.34,4.92-39.3c6.52,7.46,17.59,8.39,27.49,8.8
			c14.98,0.61,29.97,1.22,44.95,1.83c1.75,10.22,2.96,22.24-4.43,29.52c-3.43,3.38-8.15,5.05-12.79,6.34
			c-10.1,2.81-20.57,4.27-31.06,4.34c-12.44,0.08-27.26-3.65-31.24-15.43c1.35-1.11,2.7-2.22,4.05-3.33"/>
		<path class="st1" d="M312.69,367.86c-0.72-13.19-2.36-26.34-4.92-39.3c-6.52,7.46-17.59,8.39-27.49,8.8
			c-14.98,0.61-29.97,1.22-44.95,1.83c-1.75,10.22-2.96,22.24,4.43,29.52c3.43,3.38,8.15,5.05,12.79,6.34
			c10.1,2.81,20.57,4.27,31.06,4.34c12.44,0.08,27.26-3.65,31.24-15.43c-1.35-1.11-2.7-2.22-4.05-3.33"/>
	</g>
</g>
<g id="DESIGNED_BY_FREEPIK">
</g>
</svg>
